<svg id="ShallotLogo" xmlns="http://www.w3.org/2000/svg" viewBox="0 0 261 80">
  <title>shallot logo</title>

  <defs>
    <radialGradient id="baseGradient" cx="35%" cy="30%" r="70%" fx="25%" fy="20%">
      <stop offset="0%" stop-color="#F5D4B8"/>
      <stop offset="45%" stop-color="#E8A86B"/>
      <stop offset="100%" stop-color="#B87654"/>
    </radialGradient>
  </defs>

  <g id="Icon" transform="rotate(35 40 40)">
    <path id="Background" d="M40,2 C44,10 66,28 66,46 C66,60 48,70 40,78 C32,70 14,60 14,46 C14,28 36,10 40,2 Z" fill="#E8A86B"/>
    <path id="CloveLeft" d="M40,6 C37,14 22,28 20,44 C20,52 28,62 36,70 C34,58 26,46 26,38 C26,26 38,12 40,6 Z" fill="#D49560"/>
    <path id="CloveRight" d="M40,6 C43,14 58,28 60,44 C60,52 52,62 44,70 C46,58 54,46 54,38 C54,26 42,12 40,6 Z" fill="#D49560"/>
    <path id="CenterCrease" d="M40,8 C40,20 40,50 40,72" stroke="#6B4230" stroke-width="1" stroke-opacity="0.4" fill="none" stroke-linecap="round"/>
    <path id="BottomEdge" d="M40,78 C48,70 66,60 66,46 C61,58 44,70 40,73 Z" fill="#D49560"/>
    <path id="Outline" d="M40,2 C44,10 66,28 66,46 C66,60 48,70 40,78 C32,70 14,60 14,46 C14,28 36,10 40,2 Z" fill="none" stroke="#6B4230" stroke-width="2"/>
  </g>

  <g id="Text" transform="translate(70 59)">
    <path d="M13.37 0.73Q10.88 0.73 8.47 0.07Q6.06 -0.58 4.02 -1.75Q1.97 -2.93 0.52 -4.52L5.54 -9.63Q6.96 -8.09 8.87 -7.26Q10.79 -6.44 13.05 -6.44Q14.62 -6.44 15.44 -6.89Q16.27 -7.34 16.27 -8.18Q16.27 -9.22 15.27 -9.77Q14.27 -10.32 12.7 -10.74Q11.14 -11.17 9.4 -11.7Q7.66 -12.24 6.08 -13.17Q4.5 -14.09 3.51 -15.73Q2.52 -17.37 2.52 -19.95Q2.52 -22.65 3.92 -24.66Q5.31 -26.68 7.86 -27.83Q10.41 -28.97 13.86 -28.97Q17.43 -28.97 20.49 -27.74Q23.55 -26.51 25.46 -24.04L20.42 -18.94Q19.08 -20.5 17.43 -21.16Q15.78 -21.81 14.18 -21.81Q12.67 -21.81 11.93 -21.36Q11.19 -20.91 11.19 -20.13Q11.19 -19.23 12.18 -18.7Q13.17 -18.18 14.73 -17.78Q16.3 -17.37 18.02 -16.81Q19.75 -16.24 21.32 -15.24Q22.88 -14.24 23.87 -12.59Q24.85 -10.93 24.85 -8.29Q24.85 -4.15 21.75 -1.71Q18.65 0.73 13.37 0.73Z M48.31 0V-16.04Q48.31 -18.27 46.95 -19.62Q45.59 -20.97 43.48 -20.97Q42.04 -20.97 40.93 -20.36Q39.82 -19.75 39.19 -18.63Q38.57 -17.52 38.57 -16.04L35.12 -17.72Q35.12 -21.05 36.53 -23.53Q37.93 -26.01 40.42 -27.39Q42.91 -28.77 46.15 -28.77Q49.45 -28.77 51.94 -27.39Q54.43 -26.01 55.81 -23.61Q57.19 -21.2 57.19 -18.04V0ZM29.7 0V-42.11H38.57V0Z M74.65 0.58Q70.76 0.58 67.7 -1.33Q64.64 -3.25 62.89 -6.55Q61.13 -9.86 61.13 -14.07Q61.13 -18.3 62.89 -21.62Q64.64 -24.94 67.7 -26.85Q70.76 -28.77 74.65 -28.77Q77.49 -28.77 79.78 -27.67Q82.07 -26.56 83.51 -24.62Q84.94 -22.68 85.14 -20.18V-8Q84.94 -5.51 83.52 -3.57Q82.1 -1.62 79.79 -0.52Q77.49 0.58 74.65 0.58ZM76.44 -7.42Q79.29 -7.42 81.03 -9.29Q82.77 -11.17 82.77 -14.09Q82.77 -16.07 81.98 -17.56Q81.2 -19.05 79.78 -19.91Q78.36 -20.76 76.47 -20.76Q74.62 -20.76 73.2 -19.91Q71.78 -19.05 70.95 -17.55Q70.12 -16.04 70.12 -14.09Q70.12 -12.15 70.93 -10.64Q71.75 -9.13 73.18 -8.28Q74.62 -7.42 76.44 -7.42ZM82.39 0V-7.57L83.72 -14.44L82.39 -21.26V-28.19H91.12V0Z M97.38 0V-42.11H106.26V0Z M112.52 0V-42.11H121.39V0Z M141.23 0.64Q136.85 0.64 133.36 -1.31Q129.86 -3.25 127.83 -6.61Q125.8 -9.98 125.8 -14.15Q125.8 -18.33 127.82 -21.63Q129.83 -24.94 133.33 -26.88Q136.82 -28.83 141.2 -28.83Q145.61 -28.83 149.09 -26.9Q152.57 -24.97 154.6 -21.65Q156.63 -18.33 156.63 -14.15Q156.63 -9.98 154.61 -6.61Q152.6 -3.25 149.12 -1.31Q145.64 0.64 141.23 0.64ZM141.2 -7.42Q143.12 -7.42 144.56 -8.27Q146.02 -9.11 146.81 -10.63Q147.61 -12.15 147.61 -14.12Q147.61 -16.1 146.78 -17.59Q145.96 -19.08 144.54 -19.92Q143.12 -20.76 141.2 -20.76Q139.34 -20.76 137.9 -19.91Q136.45 -19.05 135.63 -17.56Q134.82 -16.07 134.82 -14.09Q134.82 -12.15 135.63 -10.63Q136.45 -9.11 137.9 -8.27Q139.34 -7.42 141.2 -7.42Z M165.07 0V-39.85H173.94V0ZM158.69 -20.65V-28.19H180.32V-20.65Z" fill="#F0ECE8"/>
  </g>
</svg>